<svg width="264" height="264" fill="none" xmlns="http://www.w3.org/2000/svg"><g filter="url(#filter0_d)"><rect x="4" width="256" height="256" rx="40" fill="#fff"/></g><circle cx="132.5" cy="128.5" r="90.5" fill="url(#paint0_linear)"/><path opacity=".75" d="M128.727 180C98.352 180 71 150.884 71 121.48 71 92.076 104.715 70 135.091 70 165.467 70 181 92.076 181 121.48c0 29.404-21.897 58.52-52.273 58.52z" fill="#fff"/><path opacity=".5" d="M83.701 137.218c-5.828-29.045 19.731-52.118 48.776-57.946 29.045-5.828 55.275 13.182 61.103 42.227 5.828 29.045-12.11 54.79-41.154 60.618-29.045 5.828-62.897-15.854-68.725-44.899z" fill="#fff"/><g opacity=".5" filter="url(#filter1_d)"><path d="M132.135 78.349c29.371 2.907 52.939 34.609 50.032 63.98-2.908 29.371-37.691 48.196-67.062 45.288-29.37-2.908-42.207-26.446-39.3-55.817 2.908-29.371 26.96-56.359 56.33-53.451z" fill="#fff"/></g><defs><filter id="filter0_d" x="0" y="0" width="264" height="264" filterUnits="userSpaceOnUse" color-interpolation-filters="sRGB"><feFlood flood-opacity="0" result="BackgroundImageFix"/><feColorMatrix in="SourceAlpha" values="0 0 0 0 0 0 0 0 0 0 0 0 0 0 0 0 0 0 127 0"/><feOffset dy="4"/><feGaussianBlur stdDeviation="2"/><feColorMatrix values="0 0 0 0 0 0 0 0 0 0 0 0 0 0 0 0 0 0 0.25 0"/><feBlend in2="BackgroundImageFix" result="effect1_dropShadow"/><feBlend in="SourceGraphic" in2="effect1_dropShadow" result="shape"/></filter><filter id="filter1_d" x="71.402" y="74.133" width="115.006" height="117.779" filterUnits="userSpaceOnUse" color-interpolation-filters="sRGB"><feFlood flood-opacity="0" result="BackgroundImageFix"/><feColorMatrix in="SourceAlpha" values="0 0 0 0 0 0 0 0 0 0 0 0 0 0 0 0 0 0 127 0"/><feOffset/><feGaussianBlur stdDeviation="2"/><feColorMatrix values="0 0 0 0 0 0 0 0 0 0 0 0 0 0 0 0 0 0 0.25 0"/><feBlend in2="BackgroundImageFix" result="effect1_dropShadow"/><feBlend in="SourceGraphic" in2="effect1_dropShadow" result="shape"/></filter><linearGradient id="paint0_linear" x1="132.5" y1="38" x2="132.5" y2="219" gradientUnits="userSpaceOnUse"><stop stop-color="#FDC830"/><stop offset="1" stop-color="#F37335"/></linearGradient></defs></svg>