<svg width="520" height="520" fill="none" xmlns="http://www.w3.org/2000/svg"><g filter="url(#filter0_d)"><rect x="4" width="512" height="512" rx="40" fill="#fff"/></g><circle cx="261" cy="257" r="181" fill="url(#paint0_linear)"/><path opacity=".75" d="M253.455 360C192.703 360 138 301.767 138 242.96 138 184.153 205.431 140 266.182 140 326.933 140 358 184.153 358 242.96 358 301.767 314.206 360 253.455 360z" fill="#fff"/><path opacity=".5" d="M163.402 274.436c-11.656-58.09 39.463-104.236 97.552-115.892 58.09-11.657 110.549 26.365 122.206 84.454 11.656 58.09-24.219 109.579-82.309 121.235-58.089 11.657-125.792-31.708-137.449-89.797z" fill="#fff"/><g opacity=".5" filter="url(#filter1_d)"><path d="M260.271 156.698c58.742 5.815 105.877 69.219 100.062 127.96-5.815 58.742-75.381 96.391-134.122 90.576-58.742-5.815-84.415-52.892-78.6-111.634 5.815-58.741 53.918-112.717 112.66-106.902z" fill="#fff"/></g><defs><filter id="filter0_d" x="0" y="0" width="520" height="520" filterUnits="userSpaceOnUse" color-interpolation-filters="sRGB"><feFlood flood-opacity="0" result="BackgroundImageFix"/><feColorMatrix in="SourceAlpha" values="0 0 0 0 0 0 0 0 0 0 0 0 0 0 0 0 0 0 127 0"/><feOffset dy="4"/><feGaussianBlur stdDeviation="2"/><feColorMatrix values="0 0 0 0 0 0 0 0 0 0 0 0 0 0 0 0 0 0 0.25 0"/><feBlend in2="BackgroundImageFix" result="effect1_dropShadow"/><feBlend in="SourceGraphic" in2="effect1_dropShadow" result="shape"/></filter><filter id="filter1_d" x="133.43" y="142.691" width="242.477" height="248.813" filterUnits="userSpaceOnUse" color-interpolation-filters="sRGB"><feFlood flood-opacity="0" result="BackgroundImageFix"/><feColorMatrix in="SourceAlpha" values="0 0 0 0 0 0 0 0 0 0 0 0 0 0 0 0 0 0 127 0"/><feOffset/><feGaussianBlur stdDeviation="2"/><feColorMatrix values="0 0 0 0 0 0 0 0 0 0 0 0 0 0 0 0 0 0 0.25 0"/><feBlend in2="BackgroundImageFix" result="effect1_dropShadow"/><feBlend in="SourceGraphic" in2="effect1_dropShadow" result="shape"/></filter><linearGradient id="paint0_linear" x1="261" y1="76" x2="261" y2="438" gradientUnits="userSpaceOnUse"><stop stop-color="#FDC830"/><stop offset="1" stop-color="#F37335"/></linearGradient></defs></svg>