<svg width="192" height="192" fill="none" xmlns="http://www.w3.org/2000/svg"><circle cx="96" cy="96" r="96" fill="url(#paint0_linear)"/><path opacity=".75" d="M92.4 151C60.093 151 31 120.031 31 88.756S66.86 34 99.17 34C131.477 34 148 57.481 148 88.756S124.709 151 92.4 151z" fill="#fff"/><path opacity=".5" d="M44.86 105.762c-6.17-30.754 20.892-55.184 51.646-61.355 30.753-6.17 58.526 13.958 64.697 44.712 6.171 30.753-12.822 58.012-43.576 64.183-30.753 6.171-66.596-16.787-72.767-47.54z" fill="#fff"/><g opacity=".5" filter="url(#filter0_d)"><path d="M96.143 43.43c31.099 3.078 56.053 36.645 52.974 67.744-3.079 31.098-39.907 51.03-71.006 47.951-31.099-3.078-44.69-28.001-41.612-59.1 3.079-31.098 28.545-59.674 59.644-56.595z" fill="#fff"/></g><defs><linearGradient id="paint0_linear" x1="96" y1="0" x2="96" y2="192" gradientUnits="userSpaceOnUse"><stop stop-color="#FDC830"/><stop offset="1" stop-color="#F37335"/></linearGradient><filter id="filter0_d" x="27.109" y="34.133" width="132.135" height="135.489" filterUnits="userSpaceOnUse" color-interpolation-filters="sRGB"><feFlood flood-opacity="0" result="BackgroundImageFix"/><feColorMatrix in="SourceAlpha" values="0 0 0 0 0 0 0 0 0 0 0 0 0 0 0 0 0 0 127 0"/><feOffset/><feGaussianBlur stdDeviation="2"/><feColorMatrix values="0 0 0 0 0 0 0 0 0 0 0 0 0 0 0 0 0 0 0.25 0"/><feBlend in2="BackgroundImageFix" result="effect1_dropShadow"/><feBlend in="SourceGraphic" in2="effect1_dropShadow" result="shape"/></filter></defs></svg>