<svg width="200" height="200" fill="none" xmlns="http://www.w3.org/2000/svg"><g filter="url(#filter0_d)"><rect x="4" width="192" height="192" rx="40" fill="#fff"/></g><circle cx="100" cy="96" r="68" fill="url(#paint0_linear)"/><path opacity=".75" d="M97.558 135C74.638 135 54 113.03 54 90.844S79.44 52 102.36 52C125.279 52 137 68.658 137 90.844S120.478 135 97.558 135z" fill="#fff"/><path opacity=".5" d="M63.776 102.914c-4.371-21.783 14.798-39.088 36.582-43.46 21.784-4.37 41.456 9.888 45.827 31.671 4.371 21.784-9.082 41.092-30.866 45.464-21.783 4.371-47.172-11.891-51.543-33.675z" fill="#fff"/><g opacity=".5" filter="url(#filter1_d)"><path d="M100.101 58.763c22.028 2.18 39.704 25.957 37.523 47.985-2.181 22.028-28.268 36.146-50.296 33.966-22.028-2.181-31.656-19.835-29.475-41.863 2.18-22.028 20.22-42.269 42.248-40.088z" fill="#fff"/></g><defs><filter id="filter0_d" x="0" y="0" width="200" height="200" filterUnits="userSpaceOnUse" color-interpolation-filters="sRGB"><feFlood flood-opacity="0" result="BackgroundImageFix"/><feColorMatrix in="SourceAlpha" values="0 0 0 0 0 0 0 0 0 0 0 0 0 0 0 0 0 0 127 0"/><feOffset dy="4"/><feGaussianBlur stdDeviation="2"/><feColorMatrix values="0 0 0 0 0 0 0 0 0 0 0 0 0 0 0 0 0 0 0.25 0"/><feBlend in2="BackgroundImageFix" result="effect1_dropShadow"/><feBlend in="SourceGraphic" in2="effect1_dropShadow" result="shape"/></filter><filter id="filter1_d" x="50.035" y="51.01" width="95.929" height="98.305" filterUnits="userSpaceOnUse" color-interpolation-filters="sRGB"><feFlood flood-opacity="0" result="BackgroundImageFix"/><feColorMatrix in="SourceAlpha" values="0 0 0 0 0 0 0 0 0 0 0 0 0 0 0 0 0 0 127 0"/><feOffset/><feGaussianBlur stdDeviation="2"/><feColorMatrix values="0 0 0 0 0 0 0 0 0 0 0 0 0 0 0 0 0 0 0.25 0"/><feBlend in2="BackgroundImageFix" result="effect1_dropShadow"/><feBlend in="SourceGraphic" in2="effect1_dropShadow" result="shape"/></filter><linearGradient id="paint0_linear" x1="100" y1="28" x2="100" y2="164" gradientUnits="userSpaceOnUse"><stop stop-color="#FDC830"/><stop offset="1" stop-color="#F37335"/></linearGradient></defs></svg>