<svg width="192" height="192" fill="none" xmlns="http://www.w3.org/2000/svg"><circle cx="97.5" cy="97.5" r="78.75" fill="url(#paint0_linear)"/><path opacity=".75" d="M95.344 140.359c-25.647 0-48.74-24.584-48.74-49.41 0-24.825 28.466-43.465 54.113-43.465 25.646 0 38.762 18.64 38.762 43.466 0 24.825-18.488 49.409-44.135 49.409z" fill="#fff"/><path opacity=".5" d="M57.507 104.35C52.608 79.938 74.09 60.546 98.502 55.647c24.412-4.898 46.458 11.08 51.357 35.492 4.898 24.412-10.178 46.05-34.59 50.949-24.412 4.898-52.864-13.326-57.762-37.738z" fill="#fff"/><g opacity=".5" filter="url(#filter0_d)"><path d="M98.215 54.872c24.686 2.444 44.495 29.089 42.051 53.775-2.444 24.686-31.678 40.508-56.364 38.064-24.686-2.444-35.475-22.228-33.032-46.914 2.444-24.686 22.66-47.369 47.345-44.925z" fill="#fff"/></g><defs><linearGradient id="paint0_linear" x1="97.5" y1="18.75" x2="97.5" y2="176.25" gradientUnits="userSpaceOnUse"><stop stop-color="#FDC830"/><stop offset="1" stop-color="#F37335"/></linearGradient><filter id="filter0_d" x="42.592" y="46.666" width="106.538" height="109.201" filterUnits="userSpaceOnUse" color-interpolation-filters="sRGB"><feFlood flood-opacity="0" result="BackgroundImageFix"/><feColorMatrix in="SourceAlpha" values="0 0 0 0 0 0 0 0 0 0 0 0 0 0 0 0 0 0 127 0"/><feOffset/><feGaussianBlur stdDeviation="2"/><feColorMatrix values="0 0 0 0 0 0 0 0 0 0 0 0 0 0 0 0 0 0 0.25 0"/><feBlend in2="BackgroundImageFix" result="effect1_dropShadow"/><feBlend in="SourceGraphic" in2="effect1_dropShadow" result="shape"/></filter></defs></svg>