<svg xmlns="http://www.w3.org/2000/svg" viewBox="0 0 48 48"><linearGradient id="ik1CKCIP2qRvmWaqM_nKka" x1="4.514" x2="17.645" y1="5.514" y2="18.645" gradientUnits="userSpaceOnUse"><stop offset="0" stop-color="#fed100"/><stop offset="1" stop-color="#e36001"/></linearGradient><path fill="url(#ik1CKCIP2qRvmWaqM_nKka)" d="M12,5c-4.418,0-8,3.582-8,8s3.582,8,8,8s8-3.582,8-8S16.418,5,12,5z"/><linearGradient id="ik1CKCIP2qRvmWaqM_nKkb" x1="21.313" x2="25.618" y1="9.079" y2="34.448" gradientUnits="userSpaceOnUse"><stop offset="0" stop-color="#fcfcfc"/><stop offset="1" stop-color="#c3c9cd"/></linearGradient><path fill="url(#ik1CKCIP2qRvmWaqM_nKkb)" d="M34,14c-0.331,0-0.657,0.018-0.98,0.049C30.741,10.99,27.108,9,23,9	c-5.713,0-10.52,3.837-12.012,9.071C7.049,18.569,4,21.925,4,26c0,4.418,3.582,8,8,8c1.818,0,20.107,0,22,0c5.523,0,10-4.477,10-10	C44,18.477,39.523,14,34,14z"/><path fill="#199be2" d="M34.414,44.414c-0.781,0.781-2.047,0.781-2.828,0c-0.781-0.781-0.781-2.047,0-2.828	C32.367,40.805,36,40,36,40S35.195,43.633,34.414,44.414z"/><path fill="#199be2" d="M17.414,45.414c-0.781,0.781-2.047,0.781-2.828,0c-0.781-0.781-0.781-2.047,0-2.828	C15.367,41.805,19,41,19,41S18.195,44.633,17.414,45.414z"/><linearGradient id="ik1CKCIP2qRvmWaqM_nKkc" x1="24.977" x2="24.977" y1="23.913" y2="43.566" gradientUnits="userSpaceOnUse"><stop offset="0" stop-color="#f19900"/><stop offset="1" stop-color="#e36001"/></linearGradient><path fill="url(#ik1CKCIP2qRvmWaqM_nKkc)" d="M25,42.644V36h-4.483c-0.718,0-1.202-0.734-0.919-1.394l4.41-10.289	C24.229,23.8,25,23.958,25,24.521V32h4.437c0.73,0,1.214,0.756,0.908,1.419l-4.358,9.442C25.755,43.365,25,43.199,25,42.644z"/></svg>