<svg xmlns="http://www.w3.org/2000/svg" viewBox="0 0 48 48"><linearGradient id="HpSXYM6ldrZwYqMW_DPDra" x1="4.514" x2="17.645" y1="5.514" y2="18.645" gradientUnits="userSpaceOnUse"><stop offset="0" stop-color="#fed100"/><stop offset="1" stop-color="#e36001"/></linearGradient><path fill="url(#HpSXYM6ldrZwYqMW_DPDra)" d="M12,5c-4.418,0-8,3.582-8,8s3.582,8,8,8s8-3.582,8-8S16.418,5,12,5z"/><linearGradient id="HpSXYM6ldrZwYqMW_DPDrb" x1="21.313" x2="25.618" y1="9.079" y2="34.448" gradientUnits="userSpaceOnUse"><stop offset="0" stop-color="#fcfcfc"/><stop offset="1" stop-color="#c3c9cd"/></linearGradient><path fill="url(#HpSXYM6ldrZwYqMW_DPDrb)" d="M34,14c-0.331,0-0.657,0.018-0.98,0.049C30.741,10.99,27.108,9,23,9	c-5.713,0-10.52,3.837-12.012,9.071C7.049,18.569,4,21.925,4,26c0,4.418,3.582,8,8,8c1.818,0,20.107,0,22,0c5.523,0,10-4.477,10-10	C44,18.477,39.523,14,34,14z"/><path fill="#199be2" d="M31.414,42.414c-0.781,0.781-2.047,0.781-2.828,0c-0.781-0.781-0.781-2.047,0-2.828	C29.367,38.805,33,38,33,38S32.195,41.633,31.414,42.414z"/><path fill="#199be2" d="M14.414,40.414c-0.781,0.781-2.047,0.781-2.828,0c-0.781-0.781-0.781-2.047,0-2.828	C12.367,36.805,16,36,16,36S15.195,39.633,14.414,40.414z"/><path fill="#199be2" d="M21.414,46.414c-0.781,0.781-2.047,0.781-2.828,0c-0.781-0.781-0.781-2.047,0-2.828	C19.367,42.805,23,42,23,42S22.195,45.633,21.414,46.414z"/></svg>