<svg xmlns="http://www.w3.org/2000/svg" viewBox="0 0 48 48"><linearGradient id="eauVTRIeCWwZ65GOtGoMja" x1="5.707" x2="23.762" y1="7.707" y2="25.762" gradientUnits="userSpaceOnUse"><stop offset="0" stop-color="#fed100"/><stop offset="1" stop-color="#e36001"/></linearGradient><path fill="url(#eauVTRIeCWwZ65GOtGoMja)" d="M16,7C9.925,7,5,11.925,5,18s4.925,11,11,11s11-4.925,11-11S22.075,7,16,7z"/><linearGradient id="eauVTRIeCWwZ65GOtGoMjb" x1="22.313" x2="26.618" y1="16.079" y2="41.448" gradientUnits="userSpaceOnUse"><stop offset="0" stop-color="#fcfcfc"/><stop offset="1" stop-color="#c3c9cd"/></linearGradient><path fill="url(#eauVTRIeCWwZ65GOtGoMjb)" d="M35,21c-0.331,0-0.657,0.018-0.98,0.049C31.741,17.99,28.108,16,24,16	c-5.713,0-10.52,3.837-12.012,9.071C8.049,25.569,5,28.925,5,33c0,4.418,3.582,8,8,8c1.818,0,20.107,0,22,0c5.523,0,10-4.477,10-10	C45,25.477,40.523,21,35,21z"/></svg>