<svg xmlns="http://www.w3.org/2000/svg" viewBox="0 0 48 48" width="96px" height="96px"><radialGradient id="sFNXAgq0WdGYFCYIyCAWIa" cx="18.906" cy="23.876" r="19.009" gradientUnits="userSpaceOnUse"><stop offset=".313" stop-color="#fcfcfc"/><stop offset=".465" stop-color="#eff0f1"/><stop offset=".741" stop-color="#ced1d3"/><stop offset="1" stop-color="#aaafb3"/></radialGradient><path fill="url(#sFNXAgq0WdGYFCYIyCAWIa)" d="M15,6C8.925,6,4,10.925,4,17s4.925,11,11,11s11-4.925,11-11S21.075,6,15,6z"/><radialGradient id="sFNXAgq0WdGYFCYIyCAWIb" cx="14.71" cy="12.25" r="3.456" gradientUnits="userSpaceOnUse"><stop offset=".313" stop-color="#9da2a6" stop-opacity="0"/><stop offset="1" stop-color="#9da2a6"/></radialGradient><path fill="url(#sFNXAgq0WdGYFCYIyCAWIb)" d="M14,9c-1.105,0-2,0.895-2,2s0.895,2,2,2s2-0.895,2-2S15.105,9,14,9z"/><radialGradient id="sFNXAgq0WdGYFCYIyCAWIc" cx="9.355" cy="17.625" r="1.728" gradientUnits="userSpaceOnUse"><stop offset=".313" stop-color="#9da2a6" stop-opacity="0"/><stop offset="1" stop-color="#9da2a6"/></radialGradient><path fill="url(#sFNXAgq0WdGYFCYIyCAWIc)" d="M9,16c-0.552,0-1,0.448-1,1s0.448,1,1,1s1-0.448,1-1S9.552,16,9,16z"/><linearGradient id="sFNXAgq0WdGYFCYIyCAWId" x1="21.313" x2="25.618" y1="13.079" y2="38.448" gradientUnits="userSpaceOnUse"><stop offset="0" stop-color="#bac0ff"/><stop offset=".398" stop-color="#8a91e7"/><stop offset=".796" stop-color="#6069d1"/><stop offset="1" stop-color="#5059c9"/></linearGradient><path fill="url(#sFNXAgq0WdGYFCYIyCAWId)" d="M34,18c-0.331,0-0.657,0.018-0.98,0.049C30.741,14.99,27.108,13,23,13	c-5.713,0-10.52,3.837-12.012,9.071C7.049,22.569,4,25.925,4,30c0,4.418,3.582,8,8,8c1.818,0,20.107,0,22,0c5.523,0,10-4.477,10-10	C44,22.477,39.523,18,34,18z"/><path fill="#5059c9" d="M17,40c0,1.104-0.896,2-2,2s-2,0.896-2,2s0.896,2,2,2h22c1.105,0,2-0.895,2-2c0-1.105-0.895-2-2-2h-5	c-1.104,0-2-0.896-2-2s0.896-2,2-2c-3.961,0-12.402,0-17,0C16.104,38,17,38.896,17,40z"/><path fill="#5059c9" d="M46,34h-0.018h-3.995c-1.825,2.425-4.718,4-7.986,4h12c1.104,0,2-0.896,2-2S47.104,34,46,34z"/><path fill="#8e95f0" d="M41.986,34H26c-1.104,0-2-0.896-2-2c0-1.102,0.89-1.994,1.99-1.999H28c1.104,0,2-0.896,2-2V28	c0-1.104-0.896-2-2-2H14v0.001c-1.104,0-2,0.896-2,2s0.896,2,2,2V30h2c1.105,0,2,0.895,2,2c0,1.105-0.895,2-2,2h-4	c-1.105,0-2,0.895-2,2c0,1.105,0.895,2,2,2c0.38,0,1.484,0,3,0c4.598,0,13.039,0,17,0c0.989,0,1.701,0,2,0	C37.268,38,40.162,36.425,41.986,34z"/></svg>