<svg xmlns="http://www.w3.org/2000/svg" viewBox="0 0 48 48" width="96px" height="96px"><radialGradient id="4Tfd7HYdaG4b8orK_r_Q3a" cx="18.906" cy="22.876" r="19.009" gradientUnits="userSpaceOnUse"><stop offset=".313" stop-color="#fcfcfc"/><stop offset=".465" stop-color="#eff0f1"/><stop offset=".741" stop-color="#ced1d3"/><stop offset="1" stop-color="#aaafb3"/></radialGradient><path fill="url(#4Tfd7HYdaG4b8orK_r_Q3a)" d="M15,5C8.925,5,4,9.925,4,16s4.925,11,11,11s11-4.925,11-11S21.075,5,15,5z"/><radialGradient id="4Tfd7HYdaG4b8orK_r_Q3b" cx="14.71" cy="11.25" r="3.456" gradientUnits="userSpaceOnUse"><stop offset=".313" stop-color="#9da2a6" stop-opacity="0"/><stop offset="1" stop-color="#9da2a6"/></radialGradient><path fill="url(#4Tfd7HYdaG4b8orK_r_Q3b)" d="M14,8c-1.105,0-2,0.895-2,2s0.895,2,2,2s2-0.895,2-2S15.105,8,14,8z"/><radialGradient id="4Tfd7HYdaG4b8orK_r_Q3c" cx="9.355" cy="16.625" r="1.728" gradientUnits="userSpaceOnUse"><stop offset=".313" stop-color="#9da2a6" stop-opacity="0"/><stop offset="1" stop-color="#9da2a6"/></radialGradient><path fill="url(#4Tfd7HYdaG4b8orK_r_Q3c)" d="M9,15c-0.552,0-1,0.448-1,1s0.448,1,1,1s1-0.448,1-1S9.552,15,9,15z"/><linearGradient id="4Tfd7HYdaG4b8orK_r_Q3d" x1="21.313" x2="25.618" y1="14.079" y2="39.448" gradientUnits="userSpaceOnUse"><stop offset="0" stop-color="#bac0ff"/><stop offset=".398" stop-color="#8a91e7"/><stop offset=".796" stop-color="#6069d1"/><stop offset="1" stop-color="#5059c9"/></linearGradient><path fill="url(#4Tfd7HYdaG4b8orK_r_Q3d)" d="M34,19c-0.331,0-0.657,0.018-0.98,0.049C30.741,15.99,27.108,14,23,14	c-5.713,0-10.52,3.837-12.012,9.071C7.049,23.569,4,26.925,4,31c0,4.418,3.582,8,8,8c1.818,0,20.107,0,22,0c5.523,0,10-4.477,10-10	C44,23.477,39.523,19,34,19z"/><path fill="#35c1f1" d="M25,31h-8c-0.552,0-1-0.447-1-1s0.448-1,1-1h8c0.551,0,1-0.448,1-1s-0.449-1-1-1	c-0.19,0-0.375,0.054-0.534,0.155c-0.466,0.296-1.085,0.16-1.381-0.307c-0.297-0.466-0.16-1.084,0.306-1.381	C23.872,25.162,24.428,25,25,25c1.654,0,3,1.346,3,3S26.654,31,25,31z"/><path fill="#35c1f1" d="M35,45c-2.307,0-4.371-1.287-5.388-3.359c-0.244-0.495-0.039-1.095,0.457-1.338	c0.496-0.244,1.095-0.039,1.338,0.457C32.085,42.142,33.462,43,35,43c2.206,0,4-1.794,4-4s-1.794-4-4-4H15.625c-0.552,0-1-0.447-1-1	s0.448-1,1-1H35c3.309,0,6,2.691,6,6S38.309,45,35,45z"/><path fill="#35c1f1" d="M22,45c-1.538,0-2.915-0.858-3.592-2.239c-0.243-0.496-0.039-1.095,0.458-1.338	c0.497-0.248,1.095-0.039,1.338,0.457C20.542,42.57,21.231,43,22,43c1.103,0,2-0.897,2-2s-0.897-2-2-2h-8c-0.552,0-1-0.447-1-1	s0.448-1,1-1h8c2.206,0,4,1.794,4,4S24.206,45,22,45z"/></svg>