<svg xmlns="http://www.w3.org/2000/svg" viewBox="0 0 48 48" width="96px" height="96px"><linearGradient id="QagutvzYqkBH_OsO8LpY9a" x1="4.514" x2="17.645" y1="5.514" y2="18.645" gradientUnits="userSpaceOnUse"><stop offset="0" stop-color="#fed100"/><stop offset="1" stop-color="#e36001"/></linearGradient><path fill="url(#QagutvzYqkBH_OsO8LpY9a)" d="M12,5c-4.418,0-8,3.582-8,8s3.582,8,8,8s8-3.582,8-8S16.418,5,12,5z"/><linearGradient id="QagutvzYqkBH_OsO8LpY9b" x1="21.313" x2="25.618" y1="9.079" y2="34.448" gradientUnits="userSpaceOnUse"><stop offset="0" stop-color="#fcfcfc"/><stop offset="1" stop-color="#c3c9cd"/></linearGradient><path fill="url(#QagutvzYqkBH_OsO8LpY9b)" d="M34,14c-0.331,0-0.657,0.018-0.98,0.049C30.741,10.99,27.108,9,23,9	c-5.713,0-10.52,3.837-12.012,9.071C7.049,18.569,4,21.925,4,26c0,4.418,3.582,8,8,8c1.818,0,20.107,0,22,0c5.523,0,10-4.477,10-10	C44,18.477,39.523,14,34,14z"/><path fill="#199be2" d="M17,47c-0.552,0-1-0.447-1-1v-6c0-0.553,0.448-1,1-1s1,0.447,1,1v6C18,46.553,17.552,47,17,47z"/><path fill="#199be2" d="M14.403,45.5c-0.346,0-0.682-0.179-0.867-0.5c-0.276-0.479-0.112-1.09,0.366-1.366l5.196-3	c0.479-0.277,1.089-0.112,1.366,0.366c0.276,0.479,0.112,1.09-0.366,1.366l-5.196,3C14.744,45.457,14.572,45.5,14.403,45.5z"/><path fill="#199be2" d="M19.597,45.5c-0.169,0-0.341-0.043-0.499-0.134l-5.196-3C13.423,42.09,13.26,41.479,13.536,41	c0.277-0.478,0.887-0.644,1.366-0.366l5.196,3c0.479,0.276,0.642,0.888,0.366,1.366C20.279,45.32,19.943,45.5,19.597,45.5z"/><path fill="#199be2" d="M31,42c-0.256,0-0.512-0.098-0.707-0.293c-0.391-0.391-0.391-1.023,0-1.414l2-2	c0.391-0.391,1.023-0.391,1.414,0s0.391,1.023,0,1.414l-2,2C31.512,41.902,31.256,42,31,42z"/><path fill="#199be2" d="M33,42c-0.256,0-0.512-0.098-0.707-0.293l-2-2c-0.391-0.391-0.391-1.023,0-1.414s1.023-0.391,1.414,0	l2,2c0.391,0.391,0.391,1.023,0,1.414C33.512,41.902,33.256,42,33,42z"/></svg>