<svg xmlns="http://www.w3.org/2000/svg" viewBox="0 0 48 48" width="96px" height="96px"><radialGradient id="oFZ8Qgn_6K6cQqJ5EmT8ha" cx="18.906" cy="22.876" r="19.009" gradientUnits="userSpaceOnUse"><stop offset=".313" stop-color="#fcfcfc"/><stop offset=".465" stop-color="#eff0f1"/><stop offset=".741" stop-color="#ced1d3"/><stop offset="1" stop-color="#aaafb3"/></radialGradient><path fill="url(#oFZ8Qgn_6K6cQqJ5EmT8ha)" d="M15,5C8.925,5,4,9.925,4,16s4.925,11,11,11s11-4.925,11-11S21.075,5,15,5z"/><radialGradient id="oFZ8Qgn_6K6cQqJ5EmT8hb" cx="14.71" cy="11.25" r="3.456" gradientUnits="userSpaceOnUse"><stop offset=".313" stop-color="#9da2a6" stop-opacity="0"/><stop offset="1" stop-color="#9da2a6"/></radialGradient><path fill="url(#oFZ8Qgn_6K6cQqJ5EmT8hb)" d="M14,8c-1.105,0-2,0.895-2,2s0.895,2,2,2s2-0.895,2-2S15.105,8,14,8z"/><radialGradient id="oFZ8Qgn_6K6cQqJ5EmT8hc" cx="9.355" cy="16.625" r="1.728" gradientUnits="userSpaceOnUse"><stop offset=".313" stop-color="#9da2a6" stop-opacity="0"/><stop offset="1" stop-color="#9da2a6"/></radialGradient><path fill="url(#oFZ8Qgn_6K6cQqJ5EmT8hc)" d="M9,15c-0.552,0-1,0.448-1,1s0.448,1,1,1s1-0.448,1-1S9.552,15,9,15z"/><linearGradient id="oFZ8Qgn_6K6cQqJ5EmT8hd" x1="21.313" x2="25.618" y1="13.079" y2="38.448" gradientUnits="userSpaceOnUse"><stop offset="0" stop-color="#bac0ff"/><stop offset=".398" stop-color="#8a91e7"/><stop offset=".796" stop-color="#6069d1"/><stop offset="1" stop-color="#5059c9"/></linearGradient><path fill="url(#oFZ8Qgn_6K6cQqJ5EmT8hd)" d="M34,18c-0.331,0-0.657,0.018-0.98,0.049C30.741,14.99,27.108,13,23,13	c-5.713,0-10.52,3.837-12.012,9.071C7.049,22.569,4,25.925,4,30c0,4.418,3.582,8,8,8c1.818,0,20.107,0,22,0c5.523,0,10-4.477,10-10	C44,22.477,39.523,18,34,18z"/><path fill="#199be2" d="M34.414,45.414c-0.781,0.781-2.047,0.781-2.828,0c-0.781-0.781-0.781-2.047,0-2.828	C32.367,41.805,36,41,36,41S35.195,44.633,34.414,45.414z"/><path fill="#199be2" d="M17.414,46.414c-0.781,0.781-2.047,0.781-2.828,0c-0.781-0.781-0.781-2.047,0-2.828	C15.367,42.805,19,42,19,42S18.195,45.633,17.414,46.414z"/><linearGradient id="oFZ8Qgn_6K6cQqJ5EmT8he" x1="24.977" x2="24.977" y1="23.913" y2="43.566" gradientUnits="userSpaceOnUse"><stop offset="0" stop-color="#fede00"/><stop offset="1" stop-color="#ffd000"/></linearGradient><path fill="url(#oFZ8Qgn_6K6cQqJ5EmT8he)" d="M25,42.644V36h-4.483c-0.718,0-1.202-0.734-0.919-1.394l4.41-10.289	C24.229,23.8,25,23.958,25,24.521V32h4.437c0.73,0,1.214,0.756,0.908,1.419l-4.358,9.442C25.755,43.365,25,43.199,25,42.644z"/></svg>