<svg xmlns="http://www.w3.org/2000/svg" viewBox="0 0 48 48" width="96px" height="96px"><linearGradient id="DQUvIZD3cuyjCH~htViD9a" x1="21.313" x2="25.618" y1="6.079" y2="31.448" gradientUnits="userSpaceOnUse"><stop offset="0" stop-color="#fcfcfc"/><stop offset="1" stop-color="#c3c9cd"/></linearGradient><path fill="url(#DQUvIZD3cuyjCH~htViD9a)" d="M34,11c-0.331,0-0.657,0.018-0.98,0.049C30.741,7.99,27.108,6,23,6	c-5.713,0-10.52,3.837-12.012,9.071C7.049,15.569,4,18.925,4,23c0,4.418,3.582,8,8,8c1.818,0,20.107,0,22,0c5.523,0,10-4.477,10-10	C44,15.477,39.523,11,34,11z"/><path fill="#0078d4" d="M25,27h-8c-0.552,0-1-0.447-1-1s0.448-1,1-1h8c0.551,0,1-0.448,1-1s-0.449-1-1-1	c-0.19,0-0.375,0.054-0.534,0.155c-0.466,0.296-1.084,0.16-1.381-0.307c-0.297-0.466-0.16-1.084,0.306-1.381	C23.872,21.162,24.428,21,25,21c1.654,0,3,1.346,3,3S26.654,27,25,27z"/><path fill="#199be2" d="M35,41c-2.307,0-4.371-1.287-5.388-3.359c-0.244-0.495-0.039-1.095,0.457-1.338	c0.496-0.243,1.095-0.039,1.338,0.457C32.085,38.142,33.462,39,35,39c2.206,0,4-1.794,4-4s-1.794-4-4-4H15.625c-0.552,0-1-0.447-1-1	s0.448-1,1-1H35c3.309,0,6,2.691,6,6S38.309,41,35,41z"/><path fill="#35c1f1" d="M22,41c-1.538,0-2.915-0.858-3.592-2.239c-0.243-0.496-0.039-1.095,0.458-1.338	c0.496-0.247,1.095-0.04,1.338,0.457C20.542,38.57,21.231,39,22,39c1.103,0,2-0.897,2-2s-0.897-2-2-2h-8c-0.552,0-1-0.447-1-1	s0.448-1,1-1h8c2.206,0,4,1.794,4,4S24.206,41,22,41z"/></svg>