<svg width="0" height="0" class="hidden"><symbol xmlns="http://www.w3.org/2000/svg" viewBox="0 0 24 24" id="arrow-down-line"><path fill="none" d="M0 0h24v24H0z"></path><path d="M13 16.172l5.364-5.364 1.414 1.414L12 20l-7.778-7.778 1.414-1.414L11 16.172V4h2v12.172z"></path></symbol><symbol xmlns="http://www.w3.org/2000/svg" viewBox="0 0 24 24" id="arrow-down-s-line"><path fill="none" d="M0 0h24v24H0z"></path><path d="M12 13.172l4.95-4.95 1.414 1.414L12 16 5.636 9.636 7.05 8.222z"></path></symbol><symbol xmlns="http://www.w3.org/2000/svg" viewBox="0 0 24 24" id="arrow-left-line"><path fill="none" d="M0 0h24v24H0z"></path><path d="M7.828 11H20v2H7.828l5.364 5.364-1.414 1.414L4 12l7.778-7.778 1.414 1.414z"></path></symbol><symbol xmlns="http://www.w3.org/2000/svg" viewBox="0 0 24 24" id="arrow-left-s-line"><path fill="none" d="M0 0h24v24H0z"></path><path d="M10.828 12l4.95 4.95-1.414 1.414L8 12l6.364-6.364 1.414 1.414z"></path></symbol><symbol xmlns="http://www.w3.org/2000/svg" viewBox="0 0 24 24" id="arrow-right-line"><path fill="none" d="M0 0h24v24H0z"></path><path d="M16.172 11l-5.364-5.364 1.414-1.414L20 12l-7.778 7.778-1.414-1.414L16.172 13H4v-2z"></path></symbol><symbol xmlns="http://www.w3.org/2000/svg" viewBox="0 0 24 24" id="arrow-right-s-line"><path fill="none" d="M0 0h24v24H0z"></path><path d="M13.172 12l-4.95-4.95 1.414-1.414L16 12l-6.364 6.364-1.414-1.414z"></path></symbol><symbol xmlns="http://www.w3.org/2000/svg" viewBox="0 0 24 24" id="arrow-up-line"><path fill="none" d="M0 0h24v24H0z"></path><path d="M13 7.828V20h-2V7.828l-5.364 5.364-1.414-1.414L12 4l7.778 7.778-1.414 1.414L13 7.828z"></path></symbol><symbol xmlns="http://www.w3.org/2000/svg" viewBox="0 0 24 24" id="arrow-up-s-line"><path fill="none" d="M0 0h24v24H0z"></path><path d="M12 10.828l-4.95 4.95-1.414-1.414L12 8l6.364 6.364-1.414 1.414z"></path></symbol><symbol xmlns="http://www.w3.org/2000/svg" viewBox="0 0 24 24" id="blaze-line"><path fill="none" d="M0 0h24v24H0z"></path><path d="M19 9c.667 1.06 1 2.394 1 4 0 3-3.5 4-5 9-.667-.575-1-1.408-1-2.5 0-3.482 5-5.29 5-10.5zm-4.5-4a8.31 8.31 0 011 4c0 5-6 6-4 13C9.833 20.84 9 19.173 9 17c0-3.325 5.5-6 5.5-12zM10 1c.667 1.333 1 2.833 1 4.5 0 6-9 7.5-3 16.5-2.5-.5-4.5-3-4.5-6C3.5 9.5 10 8.5 10 1z"></path></symbol><symbol xmlns="http://www.w3.org/2000/svg" viewBox="0 0 24 24" id="check-line"><path fill="none" d="M0 0h24v24H0z"></path><path d="M10 15.172l9.192-9.193 1.415 1.414L10 18l-6.364-6.364 1.414-1.414z"></path></symbol><symbol xmlns="http://www.w3.org/2000/svg" viewBox="0 0 24 24" id="close-circle-line"><path fill="none" d="M0 0h24v24H0z"></path><path d="M12 22C6.477 22 2 17.523 2 12S6.477 2 12 2s10 4.477 10 10-4.477 10-10 10zm0-2a8 8 0 100-16 8 8 0 000 16zm0-9.414l2.828-2.829 1.415 1.415L13.414 12l2.829 2.828-1.415 1.415L12 13.414l-2.828 2.829-1.415-1.415L10.586 12 7.757 9.172l1.415-1.415L12 10.586z"></path></symbol><symbol xmlns="http://www.w3.org/2000/svg" viewBox="0 0 24 24" id="close-line"><path fill="none" d="M0 0h24v24H0z"></path><path d="M12 10.586l4.95-4.95 1.414 1.414-4.95 4.95 4.95 4.95-1.414 1.414-4.95-4.95-4.95 4.95-1.414-1.414 4.95-4.95-4.95-4.95L7.05 5.636z"></path></symbol><symbol xmlns="http://www.w3.org/2000/svg" viewBox="0 0 24 24" id="cloud-windy-line"><path fill="none" d="M0 0h24v24H0z"></path><path d="M14 18v-2h3.5a3.5 3.5 0 10-2.5-5.95V10a6 6 0 10-12 0v.007H1V10a8 8 0 0115.458-2.901A5.5 5.5 0 1117.5 18H14zm-8 2h10v2H6v-2zm0-8h8v2H6v-2zm-4 4h10v2H2v-2z"></path></symbol><symbol xmlns="http://www.w3.org/2000/svg" viewBox="0 0 24 24" id="cloudy-2-line"><path fill="none" d="M0 0h24v24H0z"></path><path d="M17 21H7A6 6 0 015.008 9.339a7 7 0 1113.984 0A6 6 0 0117 21zM7 19h10a4 4 0 10-.426-7.978 5 5 0 10-9.148 0A4 4 0 107 19z"></path></symbol><symbol xmlns="http://www.w3.org/2000/svg" viewBox="0 0 24 24" id="cloudy-line"><path fill="none" d="M0 0h24v24H0z"></path><path d="M9.5 6a6.5 6.5 0 000 13h7a4.5 4.5 0 10-.957-8.898A6.502 6.502 0 009.5 6zm7 15h-7a8.5 8.5 0 117.215-12.997A6.5 6.5 0 0116.5 21z"></path></symbol><symbol xmlns="http://www.w3.org/2000/svg" viewBox="0 0 24 24" id="compass-3-line"><path fill="none" d="M0 0h24v24H0z"></path><path d="M12 22C6.477 22 2 17.523 2 12S6.477 2 12 2s10 4.477 10 10-4.477 10-10 10zm0-2a8 8 0 100-16 8 8 0 000 16zm4.5-12.5L14 14l-6.5 2.5L10 10l6.5-2.5zM12 13a1 1 0 100-2 1 1 0 000 2z"></path></symbol><symbol xmlns="http://www.w3.org/2000/svg" viewBox="0 0 24 24" id="compass-discover-line"><path fill="none" d="M0 0h24v24H0z"></path><path d="M12 22C6.477 22 2 17.523 2 12S6.477 2 12 2s10 4.477 10 10-4.477 10-10 10zm0-2a8 8 0 100-16 8 8 0 000 16zm-5-8.5L16 8l-3.5 9.002L11 13l-4-1.5z"></path></symbol><symbol xmlns="http://www.w3.org/2000/svg" viewBox="0 0 24 24" id="contrast-drop-2-line"><path fill="none" d="M0 0h24v24H0z"></path><path d="M12 3.1L7.05 8.05a7 7 0 109.9 0L12 3.1zm0-2.828l6.364 6.364a9 9 0 11-12.728 0L12 .272zM7 13h10a5 5 0 01-10 0z"></path></symbol><symbol xmlns="http://www.w3.org/2000/svg" viewBox="0 0 24 24" id="delete-bin-line"><path fill="none" d="M0 0h24v24H0z"></path><path d="M17 6h5v2h-2v13a1 1 0 01-1 1H5a1 1 0 01-1-1V8H2V6h5V3a1 1 0 011-1h8a1 1 0 011 1v3zm1 2H6v12h12V8zm-9 3h2v6H9v-6zm4 0h2v6h-2v-6zM9 4v2h6V4H9z"></path></symbol><symbol xmlns="http://www.w3.org/2000/svg" viewBox="0 0 24 24" id="drizzle-line"><path fill="none" d="M0 0h24v24H0z"></path><path d="M17 18v-2h.5a3.5 3.5 0 10-2.5-5.95V10a6 6 0 10-8 5.659v2.089a8 8 0 119.458-10.65A5.5 5.5 0 1117.5 18l-.5.001zm-8-2h2v4H9v-4zm4 3h2v4h-2v-4z"></path></symbol><symbol xmlns="http://www.w3.org/2000/svg" viewBox="0 0 24 24" id="drop-fill"><path fill="none" d="M0 0h24v24H0z"></path><path d="M5.636 6.636L12 .272l6.364 6.364a9 9 0 11-12.728 0z"></path></symbol><symbol xmlns="http://www.w3.org/2000/svg" viewBox="0 0 24 24" id="drop-line"><path fill="none" d="M0 0h24v24H0z"></path><path d="M12 3.1L7.05 8.05a7 7 0 109.9 0L12 3.1zm0-2.828l6.364 6.364a9 9 0 11-12.728 0L12 .272z"></path></symbol><symbol xmlns="http://www.w3.org/2000/svg" viewBox="0 0 24 24" id="earth-line"><path fill="none" d="M0 0h24v24H0z"></path><path d="M6.235 6.453a8 8 0 008.817 12.944c.115-.75-.137-1.47-.24-1.722-.23-.56-.988-1.517-2.253-2.844-.338-.355-.316-.628-.195-1.437l.013-.091c.082-.554.22-.882 2.085-1.178.948-.15 1.197.228 1.542.753l.116.172c.328.48.571.59.938.756.165.075.37.17.645.325.652.373.652.794.652 1.716v.105c0 .391-.038.735-.098 1.034a8.002 8.002 0 00-3.105-12.341c-.553.373-1.312.902-1.577 1.265-.135.185-.327 1.132-.95 1.21-.162.02-.381.006-.613-.009-.622-.04-1.472-.095-1.744.644-.173.468-.203 1.74.356 2.4.09.105.107.3.046.519-.08.287-.241.462-.292.498-.096-.056-.288-.279-.419-.43-.313-.365-.705-.82-1.211-.96-.184-.051-.386-.093-.583-.135-.549-.115-1.17-.246-1.315-.554-.106-.226-.105-.537-.105-.865 0-.417 0-.888-.204-1.345a1.276 1.276 0 00-.306-.43zM12 22C6.477 22 2 17.523 2 12S6.477 2 12 2s10 4.477 10 10-4.477 10-10 10z"></path></symbol><symbol xmlns="http://www.w3.org/2000/svg" viewBox="0 0 24 24" id="earthquake-line"><path fill="none" d="M0 0h24v24H0z"></path><path d="M5 21a1 1 0 01-.993-.883L4 20v-9H1l10.327-9.388a1 1 0 011.246-.08l.1.08L23 11h-3v9a1 1 0 01-.883.993L19 21H5zm7-17.298L6 9.156V19h4.357l1.393-1.5L8 14l5-3-2.5-2 3-3-.5 3 2.5 2-4 3 3.5 3-1.25 2H18V9.157l-6-5.455z"></path></symbol><symbol xmlns="http://www.w3.org/2000/svg" viewBox="0 0 24 24" id="equalizer-line"><path fill="none" d="M0 0h24v24H0z"></path><path d="M6.17 18a3.001 3.001 0 015.66 0H22v2H11.83a3.001 3.001 0 01-5.66 0H2v-2h4.17zm6-7a3.001 3.001 0 015.66 0H22v2h-4.17a3.001 3.001 0 01-5.66 0H2v-2h10.17zm-6-7a3.001 3.001 0 015.66 0H22v2H11.83a3.001 3.001 0 01-5.66 0H2V4h4.17zM9 6a1 1 0 100-2 1 1 0 000 2zm6 7a1 1 0 100-2 1 1 0 000 2zm-6 7a1 1 0 100-2 1 1 0 000 2z"></path></symbol><symbol xmlns="http://www.w3.org/2000/svg" viewBox="0 0 24 24" id="error-warning-line"><path fill="none" d="M0 0h24v24H0z"></path><path d="M12 22C6.477 22 2 17.523 2 12S6.477 2 12 2s10 4.477 10 10-4.477 10-10 10zm0-2a8 8 0 100-16 8 8 0 000 16zm-1-5h2v2h-2v-2zm0-8h2v6h-2V7z"></path></symbol><symbol xmlns="http://www.w3.org/2000/svg" viewBox="0 0 24 24" id="eye-line"><path fill="none" d="M0 0h24v24H0z"></path><path d="M12 3c5.392 0 9.878 3.88 10.819 9-.94 5.12-5.427 9-10.819 9-5.392 0-9.878-3.88-10.819-9C2.121 6.88 6.608 3 12 3zm0 16a9.005 9.005 0 008.777-7 9.005 9.005 0 00-17.554 0A9.005 9.005 0 0012 19zm0-2.5a4.5 4.5 0 110-9 4.5 4.5 0 010 9zm0-2a2.5 2.5 0 100-5 2.5 2.5 0 000 5z"></path></symbol><symbol xmlns="http://www.w3.org/2000/svg" viewBox="0 0 24 24" id="eye-off-line"><path fill="none" d="M0 0h24v24H0z"></path><path d="M17.882 19.297A10.949 10.949 0 0112 21c-5.392 0-9.878-3.88-10.819-9a10.982 10.982 0 013.34-6.066L1.392 2.808l1.415-1.415 19.799 19.8-1.415 1.414-3.31-3.31zM5.935 7.35A8.965 8.965 0 003.223 12a9.005 9.005 0 0013.201 5.838l-2.028-2.028A4.5 4.5 0 018.19 9.604L5.935 7.35zm6.979 6.978l-3.242-3.242a2.5 2.5 0 003.241 3.241zm7.893 2.264l-1.431-1.43A8.935 8.935 0 0020.777 12 9.005 9.005 0 009.552 5.338L7.974 3.76C9.221 3.27 10.58 3 12 3c5.392 0 9.878 3.88 10.819 9a10.947 10.947 0 01-2.012 4.592zm-9.084-9.084a4.5 4.5 0 014.769 4.769l-4.77-4.769z"></path></symbol><symbol xmlns="http://www.w3.org/2000/svg" viewBox="0 0 24 24" id="fire-line"><path fill="none" d="M0 0h24v24H0z"></path><path d="M12 23a7.5 7.5 0 007.5-7.5c0-.866-.23-1.697-.5-2.47-1.667 1.647-2.933 2.47-3.8 2.47 3.995-7 1.8-10-4.2-14 .5 5-2.796 7.274-4.138 8.537A7.5 7.5 0 0012 23zm.71-17.765c3.241 2.75 3.257 4.887.753 9.274-.761 1.333.202 2.991 1.737 2.991.688 0 1.384-.2 2.119-.595a5.5 5.5 0 11-9.087-5.412c.126-.118.765-.685.793-.71.424-.38.773-.717 1.118-1.086 1.23-1.318 2.114-2.78 2.566-4.462z"></path></symbol><symbol xmlns="http://www.w3.org/2000/svg" viewBox="0 0 24 24" id="flashlight-line"><path fill="none" d="M0 0h24v24H0z"></path><path d="M13 9h8L11 24v-9H4l9-15v9zm-2 2V7.22L7.532 13H13v4.394L17.263 11H11z"></path></symbol><symbol xmlns="http://www.w3.org/2000/svg" viewBox="0 0 24 24" id="flood-line"><path fill="none" d="M0 0h24v24H0z"></path><path d="M16 17.472A5.978 5.978 0 0020 19h2v2h-2a7.963 7.963 0 01-4-1.07A7.96 7.96 0 0112 21a7.963 7.963 0 01-4-1.07A7.96 7.96 0 014 21H2v-2h2c1.537 0 2.94-.578 4-1.528A5.978 5.978 0 0012 19c1.537 0 2.94-.578 4-1.528zm-3.427-15.94l.1.08L23 11h-3v6a5.99 5.99 0 01-2-.341V9.157l-6-5.455-6 5.454.001 7.502a5.978 5.978 0 01-1.702.335L4 17v-6H1l10.327-9.388a1 1 0 011.246-.08z"></path></symbol><symbol xmlns="http://www.w3.org/2000/svg" viewBox="0 0 24 24" id="focus-2-line"><path fill="none" d="M0 0h24v24H0z"></path><path d="M12 20a8 8 0 100-16 8 8 0 000 16zm0 2C6.477 22 2 17.523 2 12S6.477 2 12 2s10 4.477 10 10-4.477 10-10 10zm0-6a4 4 0 100-8 4 4 0 000 8zm0 2a6 6 0 110-12 6 6 0 010 12zm0-4a2 2 0 110-4 2 2 0 010 4z"></path></symbol><symbol xmlns="http://www.w3.org/2000/svg" viewBox="0 0 24 24" id="focus-3-line"><path fill="none" d="M0 0h24v24H0z"></path><path d="M13 1l.001 3.062A8.004 8.004 0 0119.938 11H23v2l-3.062.001a8.004 8.004 0 01-6.937 6.937L13 23h-2v-3.062a8.004 8.004 0 01-6.938-6.937L1 13v-2h3.062A8.004 8.004 0 0111 4.062V1h2zm-1 5a6 6 0 100 12 6 6 0 000-12zm0 4a2 2 0 110 4 2 2 0 010-4z"></path></symbol><symbol xmlns="http://www.w3.org/2000/svg" viewBox="0 0 24 24" id="foggy-line"><path fill="none" d="M0 0h24v24H0z"></path><path d="M1.584 13.007a8 8 0 0114.873-5.908 5.5 5.5 0 016.52 5.908h-2.013A3.5 3.5 0 0015 10.05V10a6 6 0 10-11.193 3.007H1.584zM4 19h17v2H4v-2zm-2-4h21v2H2v-2z"></path></symbol><symbol xmlns="http://www.w3.org/2000/svg" viewBox="0 0 24 24" id="gps-line"><path fill="none" d="M0 0h24v24H0z"></path><path d="M7.132 20.737A9.997 9.997 0 012 12C2 6.477 6.477 2 12 2s10 4.477 10 10a9.997 9.997 0 01-5.132 8.737l-.896-1.791a8 8 0 10-7.945 0l-.895 1.791zm1.792-3.584a6 6 0 116.151 0l-.898-1.797a4 4 0 10-4.354 0l-.899 1.797zM12 16l3 6H9l3-6z"></path></symbol><symbol xmlns="http://www.w3.org/2000/svg" viewBox="0 0 24 24" id="hail-line"><path fill="none" d="M0 0h24v24H0z"></path><path d="M6 17.418A8.003 8.003 0 019 2a8.003 8.003 0 017.458 5.099A5.5 5.5 0 0119 17.793v-2.13a3.5 3.5 0 10-4-5.612V10a6 6 0 10-9 5.197v2.221zM10 17a2 2 0 110-4 2 2 0 010 4zm5 3a2 2 0 110-4 2 2 0 010 4zm-5 3a2 2 0 110-4 2 2 0 010 4z"></path></symbol><symbol xmlns="http://www.w3.org/2000/svg" viewBox="0 0 24 24" id="haze-2-line"><path fill="none" d="M0 0h24v24H0z"></path><path d="M12 19a1.5 1.5 0 110 3 1.5 1.5 0 010-3zm7.5 0a1.5 1.5 0 110 3 1.5 1.5 0 010-3zm-15 0a1.5 1.5 0 110 3 1.5 1.5 0 010-3zM17 7a5 5 0 010 10c-1.844 0-3.51-1.04-5-3.122C10.51 15.96 8.844 17 7 17A5 5 0 017 7c1.844 0 3.51 1.04 5 3.122C13.49 8.04 15.156 7 17 7zM7 9a3 3 0 000 6c1.254 0 2.51-.875 3.759-2.854l.089-.147-.09-.145c-1.197-1.896-2.4-2.78-3.601-2.85L7 9zm10 0c-1.254 0-2.51.875-3.759 2.854l-.09.146.09.146c1.198 1.896 2.4 2.78 3.602 2.85L17 15a3 3 0 000-6zm-5-7a1.5 1.5 0 110 3 1.5 1.5 0 010-3zM4.5 2a1.5 1.5 0 110 3 1.5 1.5 0 010-3zm15 0a1.5 1.5 0 110 3 1.5 1.5 0 010-3z"></path></symbol><symbol xmlns="http://www.w3.org/2000/svg" viewBox="0 0 24 24" id="haze-line"><path fill="none" d="M0 0h24v24H0z"></path><path d="M6.083 13a6 6 0 1111.834 0h-2.043a4 4 0 10-7.748 0H6.083zM2 15h10v2H2v-2zm12 0h8v2h-8v-2zm2 4h4v2h-4v-2zM4 19h10v2H4v-2zm7-18h2v3h-2V1zM3.515 4.929l1.414-1.414L7.05 5.636 5.636 7.05 3.515 4.93zM19.07 3.515l1.414 1.414-2.121 2.121-1.414-1.414 2.121-2.121zM23 11v2h-3v-2h3zM4 11v2H1v-2h3z"></path></symbol><symbol xmlns="http://www.w3.org/2000/svg" viewBox="0 0 24 24" id="heavy-showers-line"><path fill="none" d="M0 0h24v24H0z"></path><path d="M5 16.93a8 8 0 1111.458-9.831A5.5 5.5 0 0119 17.793v-2.13a3.5 3.5 0 10-4-5.612V10a6 6 0 10-10 4.472v2.458zM7 14h2v6H7v-6zm8 0h2v6h-2v-6zm-4 3h2v6h-2v-6z"></path></symbol><symbol xmlns="http://www.w3.org/2000/svg" viewBox="0 0 24 24" id="information-line"><path fill="none" d="M0 0h24v24H0z"></path><path d="M12 22C6.477 22 2 17.523 2 12S6.477 2 12 2s10 4.477 10 10-4.477 10-10 10zm0-2a8 8 0 100-16 8 8 0 000 16zM11 7h2v2h-2V7zm0 4h2v6h-2v-6z"></path></symbol><symbol xmlns="http://www.w3.org/2000/svg" viewBox="0 0 24 24" id="map-2-line"><path fill="none" d="M0 0h24v24H0z"></path><path d="M2 5l7-3 6 3 6.303-2.701a.5.5 0 01.697.46V19l-7 3-6-3-6.303 2.701a.5.5 0 01-.697-.46V5zm14 14.395l4-1.714V5.033l-4 1.714v12.648zm-2-.131V6.736l-4-2v12.528l4 2zm-6-2.011V4.605L4 6.319v12.648l4-1.714z"></path></symbol><symbol xmlns="http://www.w3.org/2000/svg" viewBox="0 0 24 24" id="map-pin-line"><path fill="none" d="M0 0h24v24H0z"></path><path d="M12 20.9l4.95-4.95a7 7 0 10-9.9 0L12 20.9zm0 2.828l-6.364-6.364a9 9 0 1112.728 0L12 23.728zM12 13a2 2 0 100-4 2 2 0 000 4zm0 2a4 4 0 110-8 4 4 0 010 8z"></path></symbol><symbol xmlns="http://www.w3.org/2000/svg" viewBox="0 0 24 24" id="meteor-line"><path fill="none" d="M0 0h24v24H0z"></path><path d="M21 1v12A9 9 0 117.375 5.278L14 1.453v2.77L21 1zm-2 3.122l-7 3.224v-2.43L8.597 6.881a6.997 6.997 0 00-3.592 5.845L5 13a7 7 0 0013.996.24L19 13V4.122zM12 8a5 5 0 110 10 5 5 0 010-10zm0 2a3 3 0 100 6 3 3 0 000-6z"></path></symbol><symbol xmlns="http://www.w3.org/2000/svg" viewBox="0 0 24 24" id="mist-line"><path fill="none" d="M0 0h24v24H0z"></path><path d="M4 4h4v2H4V4zm12 15h4v2h-4v-2zM2 9h5v2H2V9zm7 0h3v2H9V9zm5 0h6v2h-6V9zM4 14h6v2H4v-2zm8 0h3v2h-3v-2zm5 0h5v2h-5v-2zM10 4h12v2H10V4zM2 19h12v2H2v-2z"></path></symbol><symbol xmlns="http://www.w3.org/2000/svg" viewBox="0 0 24 24" id="moon-clear-line"><path fill="none" d="M0 0h24v24H0z"></path><path d="M10 6a8 8 0 0011.955 6.956C21.474 18.03 17.2 22 12 22 6.477 22 2 17.523 2 12c0-5.2 3.97-9.474 9.044-9.955A7.963 7.963 0 0010 6zm-6 6a8 8 0 008 8 8.006 8.006 0 006.957-4.045c-.316.03-.636.045-.957.045-5.523 0-10-4.477-10-10 0-.321.015-.64.045-.957A8.006 8.006 0 004 12zm14.164-9.709L19 2.5v1l-.836.209a2 2 0 00-1.455 1.455L16.5 6h-1l-.209-.836a2 2 0 00-1.455-1.455L13 3.5v-1l.836-.209A2 2 0 0015.29.836L15.5 0h1l.209.836a2 2 0 001.455 1.455zm5 5L24 7.5v1l-.836.209a2 2 0 00-1.455 1.455L21.5 11h-1l-.209-.836a2 2 0 00-1.455-1.455L18 8.5v-1l.836-.209a2 2 0 001.455-1.455L20.5 5h1l.209.836a2 2 0 001.455 1.455z"></path></symbol><symbol xmlns="http://www.w3.org/2000/svg" viewBox="0 0 24 24" id="moon-cloudy-line"><path fill="none" d="M0 0h24v24H0z"></path><path d="M8.67 5.007a7 7 0 017.55-3.901 4.5 4.5 0 005.674 5.674c.07.396.106.804.106 1.22a6.969 6.969 0 01-.865 3.373A5.5 5.5 0 0117.5 21H9a8 8 0 01-.33-15.993zm2.177.207a8.016 8.016 0 015.61 4.885 5.529 5.529 0 012.96.245c.226-.425.393-.885.488-1.37a6.502 6.502 0 01-5.878-5.88 5.003 5.003 0 00-3.18 2.12zM17.5 19a3.5 3.5 0 10-2.5-5.95V13a6 6 0 10-6 6h8.5z"></path></symbol><symbol xmlns="http://www.w3.org/2000/svg" viewBox="0 0 24 24" id="moon-foggy-line"><path fill="none" d="M0 0h24v24H0z"></path><path d="M16 20.334v-2.199a7.522 7.522 0 003.623-4.281 9 9 0 01-10.622-8.99A7.518 7.518 0 005.151 10H3.117a9.505 9.505 0 018.538-7.963 7 7 0 0010.316 8.728A9.503 9.503 0 0116 20.335zM7 20h7v2H7v-2zm-3-8h6v2H4v-2zm-2 4h10v2H2v-2z"></path></symbol><symbol xmlns="http://www.w3.org/2000/svg" viewBox="0 0 24 24" id="moon-line"><path fill="none" d="M0 0h24v24H0z"></path><path d="M10 7a7 7 0 0012 4.9v.1c0 5.523-4.477 10-10 10S2 17.523 2 12 6.477 2 12 2h.1A6.979 6.979 0 0010 7zm-6 5a8 8 0 0015.062 3.762A9 9 0 018.238 4.938 7.999 7.999 0 004 12z"></path></symbol><symbol xmlns="http://www.w3.org/2000/svg" viewBox="0 0 24 24" id="navigation-line"><path fill="none" d="M0 0h24v24H0z"></path><path d="M4.965 5.096l3.546 12.41 3.04-6.08 5.637-2.255L4.965 5.096zM2.899 2.3l18.806 6.268a.5.5 0 01.028.939L13 13l-4.425 8.85a.5.5 0 01-.928-.086L2.26 2.911A.5.5 0 012.9 2.3z"></path></symbol><symbol xmlns="http://www.w3.org/2000/svg" viewBox="0 0 24 24" id="notification-line"><path fill="none" d="M0 0h24v24H0z"></path><path d="M5 18h14v-6.969C19 7.148 15.866 4 12 4s-7 3.148-7 7.031V18zm7-16c4.97 0 9 4.043 9 9.031V20H3v-8.969C3 6.043 7.03 2 12 2zM9.5 21h5a2.5 2.5 0 11-5 0z"></path></symbol><symbol xmlns="http://www.w3.org/2000/svg" viewBox="0 0 24 24" id="pause-fill"><path fill="none" d="M0 0h24v24H0z"></path><path d="M6 5h2v14H6V5zm10 0h2v14h-2V5z"></path></symbol><symbol xmlns="http://www.w3.org/2000/svg" viewBox="0 0 24 24" id="play-fill"><path fill="none" d="M0 0h24v24H0z"></path><path d="M19.376 12.416L8.777 19.482A.5.5 0 018 19.066V4.934a.5.5 0 01.777-.416l10.599 7.066a.5.5 0 010 .832z"></path></symbol><symbol xmlns="http://www.w3.org/2000/svg" viewBox="0 0 24 24" id="question-line"><path fill="none" d="M0 0h24v24H0z"></path><path d="M12 22C6.477 22 2 17.523 2 12S6.477 2 12 2s10 4.477 10 10-4.477 10-10 10zm0-2a8 8 0 100-16 8 8 0 000 16zm-1-5h2v2h-2v-2zm2-1.645V14h-2v-1.5a1 1 0 011-1 1.5 1.5 0 10-1.471-1.794l-1.962-.393A3.501 3.501 0 1113 13.355z"></path></symbol><symbol xmlns="http://www.w3.org/2000/svg" viewBox="0 0 24 24" id="radar-line"><path fill="none" d="M0 0h24v24H0z"></path><path d="M12.506 3.623l-1.023 1.772c-2.91-.879-5.514-.45-6.411 1.105-1.178 2.04.79 5.652 4.678 7.897s8 2.142 9.178.103c.898-1.555-.033-4.024-2.249-6.105l1.023-1.772c3.082 2.709 4.463 6.27 2.958 8.877-1.86 3.222-7.189 3.355-11.91.63C4.029 13.402 1.48 8.721 3.34 5.5c1.505-2.607 5.28-3.192 9.166-1.877zm3.378-1.85l1.732 1-5 8.66-1.732-1 5-8.66zM6.732 20H17v2H5.017a.995.995 0 01-.883-.5 1.005 1.005 0 010-1l2.25-3.897 1.732 1L6.732 20z"></path></symbol><symbol xmlns="http://www.w3.org/2000/svg" viewBox="0 0 24 24" id="rainbow-line"><path fill="none" d="M0 0h24v24H0z"></path><path d="M12 4c6.075 0 11 4.925 11 11v5h-2v-5a9 9 0 00-8.735-8.996L12 6a9 9 0 00-8.996 8.735L3 15v5H1v-5C1 8.925 5.925 4 12 4zm0 4a7 7 0 017 7v5h-2v-5a5 5 0 00-4.783-4.995L12 10a5 5 0 00-4.995 4.783L7 15v5H5v-5a7 7 0 017-7zm0 4a3 3 0 013 3v5h-2v-5a1 1 0 00-.883-.993L12 14a1 1 0 00-.993.883L11 15v5H9v-5a3 3 0 013-3z"></path></symbol><symbol xmlns="http://www.w3.org/2000/svg" viewBox="0 0 24 24" id="rainy-line"><path fill="none" d="M0 0h24v24H0z"></path><path d="M16 18v-2h1a4 4 0 10-2.157-7.37A6 6 0 108 15.917v2.022A8.001 8.001 0 019 2a7.998 7.998 0 016.98 4.087A6 6 0 1117 18h-1zm-5.768.732L12 16.964l1.768 1.768a2.5 2.5 0 11-3.536 0z"></path></symbol><symbol xmlns="http://www.w3.org/2000/svg" viewBox="0 0 24 24" id="refresh-line"><path fill="none" d="M0 0h24v24H0z"></path><path d="M5.463 4.433A9.961 9.961 0 0112 2c5.523 0 10 4.477 10 10 0 2.136-.67 4.116-1.81 5.74L17 12h3A8 8 0 006.46 6.228l-.997-1.795zm13.074 15.134A9.961 9.961 0 0112 22C6.477 22 2 17.523 2 12c0-2.136.67-4.116 1.81-5.74L7 12H4a8 8 0 0013.54 5.772l.997 1.795z"></path></symbol><symbol xmlns="http://www.w3.org/2000/svg" viewBox="0 0 24 24" id="road-map-line"><path fill="none" d="M0 0h24v24H0z"></path><path d="M4 6.143v12.824l5.065-2.17 6 3L20 17.68V4.857l1.303-.558a.5.5 0 01.697.46V19l-7 3-6-3-6.303 2.701a.5.5 0 01-.697-.46V7l2-.857zm12.243 5.1L12 15.485l-4.243-4.242a6 6 0 118.486 0zM12 12.657l2.828-2.829a4 4 0 10-5.656 0L12 12.657z"></path></symbol><symbol xmlns="http://www.w3.org/2000/svg" viewBox="0 0 24 24" id="search-line"><path fill="none" d="M0 0h24v24H0z"></path><path d="M18.031 16.617l4.283 4.282-1.415 1.415-4.282-4.283A8.96 8.96 0 0111 20c-4.968 0-9-4.032-9-9s4.032-9 9-9 9 4.032 9 9a8.96 8.96 0 01-1.969 5.617zm-2.006-.742A6.977 6.977 0 0018 11c0-3.868-3.133-7-7-7-3.868 0-7 3.132-7 7 0 3.867 3.132 7 7 7a6.977 6.977 0 004.875-1.975l.15-.15z"></path></symbol><symbol xmlns="http://www.w3.org/2000/svg" viewBox="0 0 24 24" id="showers-line"><path fill="none" d="M0 0h24v24H0z"></path><path d="M5 16.93a8 8 0 1111.458-9.831A5.5 5.5 0 0119 17.793v-2.13a3.5 3.5 0 10-4-5.612V10a6 6 0 10-10 4.472v2.458zM7 16h2v4H7v-4zm8 0h2v4h-2v-4zm-4 3h2v4h-2v-4z"></path></symbol><symbol xmlns="http://www.w3.org/2000/svg" viewBox="0 0 24 24" id="snowy-line"><path fill="none" d="M0 0h24v24H0z"></path><path d="M13 16.268l1.964-1.134 1 1.732L14 18l1.964 1.134-1 1.732L13 19.732V22h-2v-2.268l-1.964 1.134-1-1.732L10 18l-1.964-1.134 1-1.732L11 16.268V14h2v2.268zM17 18v-2h.5a3.5 3.5 0 10-2.5-5.95V10a6 6 0 10-8 5.659v2.089a8 8 0 119.458-10.65A5.5 5.5 0 1117.5 18l-.5.001z"></path></symbol><symbol xmlns="http://www.w3.org/2000/svg" viewBox="0 0 24 24" id="sound-module-line"><path fill="none" d="M0 0h24v24H0z"></path><path d="M21 18v3h-2v-3h-2v-2h6v2h-2zM5 18v3H3v-3H1v-2h6v2H5zm6-12V3h2v3h2v2H9V6h2zm0 4h2v11h-2V10zm-8 4V3h2v11H3zm16 0V3h2v11h-2z"></path></symbol><symbol xmlns="http://www.w3.org/2000/svg" viewBox="0 0 24 24" id="star-line"><path fill="none" d="M0 0h24v24H0z"></path><path d="M12 18.26l-7.053 3.948 1.575-7.928L.587 8.792l8.027-.952L12 .5l3.386 7.34 8.027.952-5.935 5.488 1.575 7.928L12 18.26zm0-2.292l4.247 2.377-.949-4.773 3.573-3.305-4.833-.573L12 5.275l-2.038 4.42-4.833.572 3.573 3.305-.949 4.773L12 15.968z"></path></symbol><symbol xmlns="http://www.w3.org/2000/svg" viewBox="0 0 24 24" id="stop-fill"><path fill="none" d="M0 0h24v24H0z"></path><path d="M6 5h12a1 1 0 011 1v12a1 1 0 01-1 1H6a1 1 0 01-1-1V6a1 1 0 011-1z"></path></symbol><symbol xmlns="http://www.w3.org/2000/svg" viewBox="0 0 24 24" id="sun-cloudy-line"><path fill="none" d="M0 0h24v24H0z"></path><path d="M9.984 5.06a6.5 6.5 0 1111.286 6.436A5.5 5.5 0 0117.5 21L9 20.999a8 8 0 11.984-15.94zm2.071.544a8.026 8.026 0 014.403 4.495 5.529 5.529 0 013.12.307 4.5 4.5 0 00-7.522-4.802zM17.5 19a3.5 3.5 0 10-2.5-5.95V13a6 6 0 10-6 6h8.5z"></path></symbol><symbol xmlns="http://www.w3.org/2000/svg" viewBox="0 0 24 24" id="sun-foggy-line"><path fill="none" d="M0 0h24v24H0z"></path><path d="M8 12h2v2H4v-2h2a6 6 0 116 6v-2a4 4 0 10-4-4zm-2 8h9v2H6v-2zm-4-4h8v2H2v-2zm9-15h2v3h-2V1zM3.515 4.929l1.414-1.414L7.05 5.636 5.636 7.05 3.515 4.93zM16.95 18.364l1.414-1.414 2.121 2.121-1.414 1.414-2.121-2.121zm2.121-14.85l1.414 1.415-2.121 2.121-1.414-1.414 2.121-2.121zM23 11v2h-3v-2h3z"></path></symbol><symbol xmlns="http://www.w3.org/2000/svg" viewBox="0 0 24 24" id="sun-line"><path fill="none" d="M0 0h24v24H0z"></path><path d="M12 18a6 6 0 110-12 6 6 0 010 12zm0-2a4 4 0 100-8 4 4 0 000 8zM11 1h2v3h-2V1zm0 19h2v3h-2v-3zM3.515 4.929l1.414-1.414L7.05 5.636 5.636 7.05 3.515 4.93zM16.95 18.364l1.414-1.414 2.121 2.121-1.414 1.414-2.121-2.121zm2.121-14.85l1.414 1.415-2.121 2.121-1.414-1.414 2.121-2.121zM5.636 16.95l1.414 1.414-2.121 2.121-1.414-1.414 2.121-2.121zM23 11v2h-3v-2h3zM4 11v2H1v-2h3z"></path></symbol><symbol xmlns="http://www.w3.org/2000/svg" viewBox="0 0 24 24" id="swap-line"><path fill="none" d="M0 0h24v24H0z"></path><path d="M12 22C6.477 22 2 17.523 2 12S6.477 2 12 2s10 4.477 10 10-4.477 10-10 10zm0-2a8 8 0 100-16 8 8 0 000 16zM7 9l3-3.5L13 9h-2v4H9V9H7zm10 6l-3 3.5-3-3.5h2v-4h2v4h2z"></path></symbol><symbol xmlns="http://www.w3.org/2000/svg" viewBox="0 0 24 24" id="temp-cold-line"><path fill="none" d="M0 0h24v24H0z"></path><path d="M8 5a4 4 0 118 0v5.255a7 7 0 11-8 0V5zm1.144 6.895a5 5 0 105.712 0L14 11.298V5a2 2 0 10-4 0v6.298l-.856.597zM8 16h8a4 4 0 11-8 0z"></path></symbol><symbol xmlns="http://www.w3.org/2000/svg" viewBox="0 0 24 24" id="temp-hot-line"><path fill="none" d="M0 0h24v24H0z"></path><path d="M8 5a4 4 0 118 0v5.255a7 7 0 11-8 0V5zm1.144 6.895a5 5 0 105.712 0L14 11.298V5a2 2 0 10-4 0v6.298l-.856.597zm1.856.231V5h2v7.126A4.002 4.002 0 0112 20a4 4 0 01-1-7.874zM12 18a2 2 0 100-4 2 2 0 000 4z"></path></symbol><symbol xmlns="http://www.w3.org/2000/svg" viewBox="0 0 24 24" id="thunderstorms-line"><path fill="none" d="M0 0h24v24H0z"></path><path d="M17 18v-2h.5a3.5 3.5 0 10-2.5-5.95V10a6 6 0 10-8 5.659v2.089a8 8 0 119.458-10.65A5.5 5.5 0 1117.5 18l-.5.001zm-4-1.995h3l-5 6.5v-4.5H8l5-6.505v4.505z"></path></symbol><symbol xmlns="http://www.w3.org/2000/svg" viewBox="0 0 24 24" id="tornado-line"><path fill="none" d="M0 0h24v24H0z"></path><path d="M2 3h20v2H2V3zm2 4h16v2H4V7zm4 4h14v2H8v-2zm2 4h8v2h-8v-2zm-2 4h6v2H8v-2z"></path></symbol><symbol xmlns="http://www.w3.org/2000/svg" viewBox="0 0 24 24" id="typhoon-line"><path fill="none" d="M0 0h24v24H0z"></path><path d="M17.654 1.7l-2.782 2.533a9.137 9.137 0 013.49 1.973c3.512 3.2 3.512 8.388 0 11.588-2.592 2.36-6.598 3.862-12.016 4.506l2.782-2.533a9.137 9.137 0 01-3.49-1.973c-3.512-3.2-3.533-8.369 0-11.588C8.23 3.846 12.237 2.344 17.655 1.7zM12 6c-3.866 0-7 2.686-7 6s3.134 6 7 6 7-2.686 7-6-3.134-6-7-6zm0 2.3c2.21 0 4 1.657 4 3.7s-1.79 3.7-4 3.7-4-1.657-4-3.7 1.79-3.7 4-3.7zm0 2c-1.138 0-2 .797-2 1.7 0 .903.862 1.7 2 1.7s2-.797 2-1.7c0-.903-.862-1.7-2-1.7z"></path></symbol><symbol xmlns="http://www.w3.org/2000/svg" viewBox="0 0 24 24" id="umbrella-line"><path fill="none" d="M0 0h24v24H0z"></path><path d="M13 2.05c5.053.501 9 4.765 9 9.95v1h-9v6a2 2 0 104 0v-1h2v1a4 4 0 11-8 0v-6H2v-1c0-5.185 3.947-9.449 9-9.95V2a1 1 0 012 0v.05zM19.938 11a8.001 8.001 0 00-15.876 0h15.876z"></path></symbol><symbol xmlns="http://www.w3.org/2000/svg" viewBox="0 0 24 24" id="windy-line"><path fill="none" d="M0 0h24v24H0z"></path><path d="M10.5 17H4v-2h6.5a3.5 3.5 0 11-3.278 4.73l1.873-.703A1.5 1.5 0 1010.5 17zM5 11h13.5a3.5 3.5 0 11-3.278 4.73l1.873-.703A1.5 1.5 0 1018.5 13H5a3 3 0 010-6h8.5a1.5 1.5 0 10-1.405-2.027l-1.873-.702A3.501 3.501 0 0117 5.5 3.5 3.5 0 0113.5 9H5a1 1 0 100 2z"></path></symbol></svg>